<svg width="30" height="30" viewBox="0 0 30 30" fill="none" xmlns="http://www.w3.org/2000/svg">
<rect width="30" height="30" fill="#E0E1E3"/>
<g clip-path="url(#clip0_2907_2)">
<rect width="2488" height="1399" transform="translate(-313 -413)" fill="#D9DBE0"/>
</g>
<rect width="1600" height="2450" transform="translate(-80 -465)" fill="#F7F8FA"/>
<g filter="url(#filter0_d_2907_2)">
<rect x="-25" y="-325" width="250" height="730" rx="10" fill="white"/>
<path fill-rule="evenodd" clip-rule="evenodd" d="M24 6H6C4.9 6 4 6.9 4 8V20C4 21.1 4.9 22 6 22H11V23C11 23.55 11.45 24 12 24H18C18.55 24 19 23.55 19 23V22H24C25.1 22 25.99 21.1 25.99 20L26 8C26 6.9 25.1 6 24 6ZM23 20H7C6.45 20 6 19.55 6 19V9C6 8.45 6.45 8 7 8H23C23.55 8 24 8.45 24 9V19C24 19.55 23.55 20 23 20Z" fill="#DADEE6"/>
</g>
<defs>
<filter id="filter0_d_2907_2" x="-30" y="-328" width="260" height="740" filterUnits="userSpaceOnUse" color-interpolation-filters="sRGB">
<feFlood flood-opacity="0" result="BackgroundImageFix"/>
<feColorMatrix in="SourceAlpha" type="matrix" values="0 0 0 0 0 0 0 0 0 0 0 0 0 0 0 0 0 0 127 0" result="hardAlpha"/>
<feOffset dy="2"/>
<feGaussianBlur stdDeviation="2.5"/>
<feColorMatrix type="matrix" values="0 0 0 0 0.14902 0 0 0 0 0.2 0 0 0 0 0.301961 0 0 0 0.03 0"/>
<feBlend mode="normal" in2="BackgroundImageFix" result="effect1_dropShadow_2907_2"/>
<feBlend mode="normal" in="SourceGraphic" in2="effect1_dropShadow_2907_2" result="shape"/>
</filter>
<clipPath id="clip0_2907_2">
<rect width="2488" height="1399" fill="white" transform="translate(-313 -413)"/>
</clipPath>
</defs>
</svg>
