<svg width="30" height="30" viewBox="0 0 30 30" fill="none" xmlns="http://www.w3.org/2000/svg">
<rect width="30" height="30" fill="#E0E1E3"/>
<g clip-path="url(#clip0_2907_2)">
<rect width="2488" height="1399" transform="translate(-313 -313)" fill="#D9DBE0"/>
</g>
<rect width="1600" height="2450" transform="translate(-80 -365)" fill="#F7F8FA"/>
<g filter="url(#filter0_d_2907_2)">
<rect x="-25" y="-225" width="250" height="730" rx="10" fill="white"/>
<path fill-rule="evenodd" clip-rule="evenodd" d="M14.9985 8V16.55C14.0585 16.01 12.8985 15.8 11.6685 16.23C10.3285 16.71 9.2985 17.9 9.0585 19.3C8.5985 22.04 10.9185 24.38 13.6485 23.95C15.6085 23.64 16.9985 21.84 16.9985 19.85V10H18.9985C20.0985 10 20.9985 9.1 20.9985 8C20.9985 6.9 20.0985 6 18.9985 6H16.9985C15.8985 6 14.9985 6.9 14.9985 8Z" fill="#DADEE6"/>
</g>
<defs>
<filter id="filter0_d_2907_2" x="-30" y="-228" width="260" height="740" filterUnits="userSpaceOnUse" color-interpolation-filters="sRGB">
<feFlood flood-opacity="0" result="BackgroundImageFix"/>
<feColorMatrix in="SourceAlpha" type="matrix" values="0 0 0 0 0 0 0 0 0 0 0 0 0 0 0 0 0 0 127 0" result="hardAlpha"/>
<feOffset dy="2"/>
<feGaussianBlur stdDeviation="2.5"/>
<feColorMatrix type="matrix" values="0 0 0 0 0.14902 0 0 0 0 0.2 0 0 0 0 0.301961 0 0 0 0.03 0"/>
<feBlend mode="normal" in2="BackgroundImageFix" result="effect1_dropShadow_2907_2"/>
<feBlend mode="normal" in="SourceGraphic" in2="effect1_dropShadow_2907_2" result="shape"/>
</filter>
<clipPath id="clip0_2907_2">
<rect width="2488" height="1399" fill="white" transform="translate(-313 -313)"/>
</clipPath>
</defs>
</svg>
