<svg width="30" height="30" viewBox="0 0 30 30" fill="none" xmlns="http://www.w3.org/2000/svg">
<rect width="30" height="30" fill="#E0E1E3"/>
<g clip-path="url(#clip0_2907_2)">
<rect width="2488" height="1399" transform="translate(-696 22)" fill="#D9DBE0"/>
</g>
<rect width="1600" height="2450" transform="translate(-463 -30)" fill="#F7F8FA"/>
<path fill-rule="evenodd" clip-rule="evenodd" d="M10.7125 12.2925L14.5925 16.1725L18.4725 12.2925C18.8625 11.9025 19.4925 11.9025 19.8825 12.2925C20.2725 12.6825 20.2725 13.3125 19.8825 13.7025L15.2925 18.2925C14.9025 18.6825 14.2725 18.6825 13.8825 18.2925L9.29249 13.7025C9.10523 13.5157 9 13.262 9 12.9975C9 12.733 9.10523 12.4793 9.29249 12.2925C9.68249 11.9125 10.3225 11.9025 10.7125 12.2925Z" fill="#C3CAD9"/>
<path d="M1137 59H-463V61H1137V59Z" fill="#ECEEF1"/>
<defs>
<clipPath id="clip0_2907_2">
<rect width="2488" height="1399" fill="white" transform="translate(-696 22)"/>
</clipPath>
</defs>
</svg>
