<svg width="30" height="30" viewBox="0 0 30 30" fill="none" xmlns="http://www.w3.org/2000/svg">
<rect width="30" height="30" fill="#E0E1E3"/>
<g clip-path="url(#clip0_2907_2)">
<rect width="2488" height="1399" transform="translate(-313 -363)" fill="#D9DBE0"/>
</g>
<rect width="1600" height="2450" transform="translate(-80 -415)" fill="#F7F8FA"/>
<g filter="url(#filter0_d_2907_2)">
<rect x="-25" y="-275" width="250" height="730" rx="10" fill="white"/>
<path fill-rule="evenodd" clip-rule="evenodd" d="M21 5.01L9 5C7.9 5 7 5.89 7 7V23C7 24.1 7.9 25 9 25H21C22.1 25 23 24.1 23 23V7C23 5.89 22.1 5.01 21 5.01ZM20 23H10C9.45 23 9 22.55 9 22V14.98C9 14.43 9.45 13.98 10 13.98H20C20.55 13.98 21 14.43 21 14.98V22C21 22.55 20.55 23 20 23ZM20 12H10C9.45 12 9 11.55 9 11V8C9 7.45 9.45 7 10 7H20C20.55 7 21 7.45 21 8V11C21 11.55 20.55 12 20 12ZM12 8C12.55 8 13 8.45 13 9V10C13 10.55 12.55 11 12 11C11.45 11 11 10.55 11 10V9C11 8.45 11.45 8 12 8ZM12 15C12.55 15 13 15.45 13 16V19C13 19.55 12.55 20 12 20C11.45 20 11 19.55 11 19V16C11 15.45 11.45 15 12 15Z" fill="#DADEE6"/>
</g>
<defs>
<filter id="filter0_d_2907_2" x="-30" y="-278" width="260" height="740" filterUnits="userSpaceOnUse" color-interpolation-filters="sRGB">
<feFlood flood-opacity="0" result="BackgroundImageFix"/>
<feColorMatrix in="SourceAlpha" type="matrix" values="0 0 0 0 0 0 0 0 0 0 0 0 0 0 0 0 0 0 127 0" result="hardAlpha"/>
<feOffset dy="2"/>
<feGaussianBlur stdDeviation="2.5"/>
<feColorMatrix type="matrix" values="0 0 0 0 0.14902 0 0 0 0 0.2 0 0 0 0 0.301961 0 0 0 0.03 0"/>
<feBlend mode="normal" in2="BackgroundImageFix" result="effect1_dropShadow_2907_2"/>
<feBlend mode="normal" in="SourceGraphic" in2="effect1_dropShadow_2907_2" result="shape"/>
</filter>
<clipPath id="clip0_2907_2">
<rect width="2488" height="1399" fill="white" transform="translate(-313 -363)"/>
</clipPath>
</defs>
</svg>
