<svg width="30" height="30" viewBox="0 0 30 30" fill="none" xmlns="http://www.w3.org/2000/svg">
<rect width="30" height="30" fill="#E0E1E3"/>
<g clip-path="url(#clip0_2907_2)">
<rect width="2488" height="1399" transform="translate(-313 -713)" fill="#D9DBE0"/>
</g>
<rect width="1600" height="2450" transform="translate(-80 -765)" fill="#F7F8FA"/>
<g filter="url(#filter0_d_2907_2)">
<rect x="-25" y="-625" width="250" height="730" rx="10" fill="white"/>
<path fill-rule="evenodd" clip-rule="evenodd" d="M26 22H25V9C25 7.9 24.1 7 23 7H7C5.9 7 5 7.9 5 9V22H4C3.45 22 3 22.45 3 23C3 23.55 3.45 24 4 24H26C26.55 24 27 23.55 27 23C27 22.45 26.55 22 26 22ZM16.5 22H13.5C13.22 22 13 21.78 13 21.5C13 21.22 13.22 21 13.5 21H16.5C16.78 21 17 21.22 17 21.5C17 21.78 16.78 22 16.5 22ZM23 19H7V10C7 9.45 7.45 9 8 9H22C22.55 9 23 9.45 23 10V19Z" fill="#DADEE6"/>
</g>
<defs>
<filter id="filter0_d_2907_2" x="-30" y="-628" width="260" height="740" filterUnits="userSpaceOnUse" color-interpolation-filters="sRGB">
<feFlood flood-opacity="0" result="BackgroundImageFix"/>
<feColorMatrix in="SourceAlpha" type="matrix" values="0 0 0 0 0 0 0 0 0 0 0 0 0 0 0 0 0 0 127 0" result="hardAlpha"/>
<feOffset dy="2"/>
<feGaussianBlur stdDeviation="2.5"/>
<feColorMatrix type="matrix" values="0 0 0 0 0.14902 0 0 0 0 0.2 0 0 0 0 0.301961 0 0 0 0.03 0"/>
<feBlend mode="normal" in2="BackgroundImageFix" result="effect1_dropShadow_2907_2"/>
<feBlend mode="normal" in="SourceGraphic" in2="effect1_dropShadow_2907_2" result="shape"/>
</filter>
<clipPath id="clip0_2907_2">
<rect width="2488" height="1399" fill="white" transform="translate(-313 -713)"/>
</clipPath>
</defs>
</svg>
