<svg width="30" height="30" viewBox="0 0 30 30" fill="none" xmlns="http://www.w3.org/2000/svg">
<rect width="30" height="30" fill="#E0E1E3"/>
<g id="Thumbnail" clip-path="url(#clip0_2907_2)">
<rect width="2488" height="1399" transform="translate(-293 22)" fill="#D9DBE0"/>
</g>
<g id="Frame 59">
<g id="Electronic Store &#226;&#128;&#147; 1600">
<rect width="1600" height="2450" transform="translate(-60 -30)" fill="#F7F8FA"/>
<g id="Navigate">
<g id="Logo">
<g id="Navigation/menu">
<path id="Icon" fill-rule="evenodd" clip-rule="evenodd" d="M7 21H23C23.55 21 24 20.55 24 20C24 19.45 23.55 19 23 19H7C6.45 19 6 19.45 6 20C6 20.55 6.45 21 7 21ZM7 16H23C23.55 16 24 15.55 24 15C24 14.45 23.55 14 23 14H7C6.45 14 6 14.45 6 15C6 15.55 6.45 16 7 16ZM6 10C6 10.55 6.45 11 7 11H23C23.55 11 24 10.55 24 10C24 9.45 23.55 9 23 9H7C6.45 9 6 9.45 6 10Z" fill="#C3CAD9"/>
</g>
</g>
<path d="M1540 59H-60V61H1540V59Z" fill="#ECEEF1"/>
</g>
</g>
</g>
<defs>
<clipPath id="clip0_2907_2">
<rect width="2488" height="1399" fill="white" transform="translate(-293 22)"/>
</clipPath>
</defs>
</svg>
