<svg width="30" height="30" viewBox="0 0 30 30" fill="none" xmlns="http://www.w3.org/2000/svg">
<rect width="30" height="30" fill="#E0E1E3"/>
<g clip-path="url(#clip0_2907_2)">
<rect width="2488" height="1399" transform="translate(-1545 22)" fill="#D9DBE0"/>
</g>
<rect width="1600" height="2450" transform="translate(-1312 -30)" fill="#F7F8FA"/>
<path fill-rule="evenodd" clip-rule="evenodd" d="M15 15C17.21 15 19 13.21 19 11C19 8.79 17.21 7 15 7C12.79 7 11 8.79 11 11C11 13.21 12.79 15 15 15ZM15 17C12.33 17 7 18.34 7 21V22C7 22.55 7.45 23 8 23H22C22.55 23 23 22.55 23 22V21C23 18.34 17.67 17 15 17Z" fill="#C3CAD9"/>
<path d="M288 59H-1312V61H288V59Z" fill="#ECEEF1"/>
<defs>
<clipPath id="clip0_2907_2">
<rect width="2488" height="1399" fill="white" transform="translate(-1545 22)"/>
</clipPath>
</defs>
</svg>
