<svg width="30" height="30" viewBox="0 0 30 30" fill="none" xmlns="http://www.w3.org/2000/svg">
<rect width="30" height="30" fill="#E0E1E3"/>
<g clip-path="url(#clip0_2907_2)">
<rect width="2488" height="1399" transform="translate(-313 -463)" fill="#D9DBE0"/>
</g>
<rect width="1600" height="2450" transform="translate(-80 -515)" fill="#F7F8FA"/>
<g filter="url(#filter0_d_2907_2)">
<rect x="-25" y="-375" width="250" height="730" rx="10" fill="white"/>
<path fill-rule="evenodd" clip-rule="evenodd" d="M23 15C23 12.46 21.81 10.19 19.96 8.73L19.28 4.67C19.12 3.71 18.28 3 17.31 3H12.7C11.72 3 10.88 3.71 10.72 4.67L10.05 8.73C8.19 10.19 7 12.45 7 15C7 17.55 8.19 19.81 10.05 21.27L10.72 25.33C10.88 26.29 11.72 27 12.7 27H17.31C18.29 27 19.12 26.29 19.28 25.33L19.96 21.27C21.81 19.81 23 17.54 23 15ZM9 15C9 11.69 11.69 9 15 9C18.31 9 21 11.69 21 15C21 18.31 18.31 21 15 21C11.69 21 9 18.31 9 15Z" fill="#DADEE6"/>
</g>
<defs>
<filter id="filter0_d_2907_2" x="-30" y="-378" width="260" height="740" filterUnits="userSpaceOnUse" color-interpolation-filters="sRGB">
<feFlood flood-opacity="0" result="BackgroundImageFix"/>
<feColorMatrix in="SourceAlpha" type="matrix" values="0 0 0 0 0 0 0 0 0 0 0 0 0 0 0 0 0 0 127 0" result="hardAlpha"/>
<feOffset dy="2"/>
<feGaussianBlur stdDeviation="2.5"/>
<feColorMatrix type="matrix" values="0 0 0 0 0.14902 0 0 0 0 0.2 0 0 0 0 0.301961 0 0 0 0.03 0"/>
<feBlend mode="normal" in2="BackgroundImageFix" result="effect1_dropShadow_2907_2"/>
<feBlend mode="normal" in="SourceGraphic" in2="effect1_dropShadow_2907_2" result="shape"/>
</filter>
<clipPath id="clip0_2907_2">
<rect width="2488" height="1399" fill="white" transform="translate(-313 -463)"/>
</clipPath>
</defs>
</svg>
